<mxfile host="Electron" agent="Mozilla/5.0 (Windows NT 10.0; Win64; x64) AppleWebKit/537.36 (KHTML, like Gecko) draw.io/28.0.6 Chrome/138.0.7204.100 Electron/37.2.3 Safari/537.36" version="28.0.6">
  <diagram name="Page-1" id="YqYZUutfsbO3LGOUvKzR">
    <mxGraphModel dx="2316" dy="1391" grid="0" gridSize="10" guides="1" tooltips="1" connect="1" arrows="1" fold="1" page="1" pageScale="1" pageWidth="1100" pageHeight="850" background="#ffffff" math="0" shadow="0">
      <root>
        <mxCell id="0" />
        <mxCell id="1" parent="0" />
        <mxCell id="5YSI662zZU7d9ESAm0FQ-12" style="rounded=0;orthogonalLoop=1;jettySize=auto;html=1;entryX=0;entryY=0.5;entryDx=0;entryDy=0;fontFamily=Helvetica;fontSize=12;fontColor=#000000;endArrow=none;endFill=0;labelBackgroundColor=none;fillColor=#eeeeee;strokeColor=#36393d;snapToPoint=0;fixDash=0;enumerate=0;" parent="1" source="5YSI662zZU7d9ESAm0FQ-1" target="5YSI662zZU7d9ESAm0FQ-7" edge="1">
          <mxGeometry relative="1" as="geometry">
            <mxPoint x="242" y="464.91999999999996" as="sourcePoint" />
            <mxPoint x="352" y="457" as="targetPoint" />
          </mxGeometry>
        </mxCell>
        <mxCell id="5YSI662zZU7d9ESAm0FQ-13" style="rounded=0;orthogonalLoop=1;jettySize=auto;html=1;entryX=0;entryY=0.5;entryDx=0;entryDy=0;fontFamily=Helvetica;fontSize=12;fontColor=#000000;endArrow=none;endFill=0;labelBackgroundColor=none;fillColor=#eeeeee;strokeColor=#36393d;snapToPoint=0;fixDash=0;enumerate=0;" parent="1" source="5YSI662zZU7d9ESAm0FQ-1" target="5YSI662zZU7d9ESAm0FQ-9" edge="1">
          <mxGeometry relative="1" as="geometry">
            <mxPoint x="242" y="472.72" as="sourcePoint" />
            <mxPoint x="352" y="522" as="targetPoint" />
          </mxGeometry>
        </mxCell>
        <mxCell id="5YSI662zZU7d9ESAm0FQ-1" value="&lt;span&gt;Owner&lt;/span&gt;" style="shape=umlActor;verticalLabelPosition=bottom;verticalAlign=top;html=1;outlineConnect=0;labelBackgroundColor=none;snapToPoint=0;fixDash=0;enumerate=0;fillColor=#eeeeee;strokeColor=#36393d;fontColor=#000000;" parent="1" vertex="1">
          <mxGeometry x="231" y="331" width="30" height="60" as="geometry" />
        </mxCell>
        <mxCell id="5YSI662zZU7d9ESAm0FQ-14" style="rounded=0;orthogonalLoop=1;jettySize=auto;html=1;entryX=0;entryY=0.5;entryDx=0;entryDy=0;fontFamily=Helvetica;fontSize=12;fontColor=#000000;endArrow=none;endFill=0;labelBackgroundColor=none;fillColor=#eeeeee;strokeColor=#36393d;snapToPoint=0;fixDash=0;enumerate=0;" parent="1" source="5YSI662zZU7d9ESAm0FQ-4" target="5YSI662zZU7d9ESAm0FQ-10" edge="1">
          <mxGeometry relative="1" as="geometry" />
        </mxCell>
        <mxCell id="5YSI662zZU7d9ESAm0FQ-4" value="&lt;span&gt;Issuer&lt;/span&gt;" style="shape=umlActor;verticalLabelPosition=bottom;verticalAlign=top;html=1;outlineConnect=0;align=center;labelBackgroundColor=none;snapToPoint=0;fixDash=0;enumerate=0;fillColor=#eeeeee;strokeColor=#36393d;fontColor=#000000;" parent="1" vertex="1">
          <mxGeometry x="231" y="439" width="30" height="60" as="geometry" />
        </mxCell>
        <mxCell id="5YSI662zZU7d9ESAm0FQ-15" style="rounded=0;orthogonalLoop=1;jettySize=auto;html=1;entryX=1;entryY=0.5;entryDx=0;entryDy=0;fontFamily=Helvetica;fontSize=12;fontColor=#000000;endArrow=none;endFill=0;labelBackgroundColor=none;fillColor=#647687;strokeColor=#314354;snapToPoint=0;fixDash=0;enumerate=0;" parent="1" source="5YSI662zZU7d9ESAm0FQ-5" target="5YSI662zZU7d9ESAm0FQ-11" edge="1">
          <mxGeometry relative="1" as="geometry" />
        </mxCell>
        <mxCell id="5YSI662zZU7d9ESAm0FQ-5" value="&lt;span&gt;Verifier&lt;/span&gt;" style="shape=umlActor;verticalLabelPosition=bottom;verticalAlign=top;html=1;outlineConnect=0;labelBackgroundColor=none;fillColor=#eeeeee;strokeColor=#36393d;snapToPoint=0;fixDash=0;enumerate=0;fontColor=#000000;" parent="1" vertex="1">
          <mxGeometry x="840" y="336" width="30" height="60" as="geometry" />
        </mxCell>
        <mxCell id="5YSI662zZU7d9ESAm0FQ-19" style="rounded=0;orthogonalLoop=1;jettySize=auto;html=1;entryX=1;entryY=0.5;entryDx=0;entryDy=0;fontFamily=Helvetica;fontSize=12;fontColor=#000000;endArrow=none;endFill=0;labelBackgroundColor=none;fillColor=#647687;strokeColor=#314354;snapToPoint=0;fixDash=0;enumerate=0;" parent="1" source="5_FEMPwi44hDqSTrpf5O-2" target="5YSI662zZU7d9ESAm0FQ-18" edge="1">
          <mxGeometry relative="1" as="geometry">
            <mxPoint x="839" y="566.8490566037735" as="sourcePoint" />
          </mxGeometry>
        </mxCell>
        <mxCell id="5YSI662zZU7d9ESAm0FQ-17" value="Decentralized Certificate Verification System" style="swimlane;whiteSpace=wrap;html=1;align=center;verticalAlign=top;fontFamily=Helvetica;fontSize=12;startSize=23;labelBackgroundColor=none;fillColor=#eeeeee;strokeColor=#36393d;snapToPoint=0;fixDash=0;enumerate=0;fontColor=#000000;" parent="1" vertex="1">
          <mxGeometry x="300" y="282" width="490" height="286" as="geometry" />
        </mxCell>
        <mxCell id="5YSI662zZU7d9ESAm0FQ-18" value="View Own Certificates" style="ellipse;whiteSpace=wrap;html=1;align=center;verticalAlign=top;fontFamily=Helvetica;fontSize=12;labelBackgroundColor=none;fillColor=#eeeeee;strokeColor=#36393d;snapToPoint=0;fixDash=0;enumerate=0;fontColor=#000000;" parent="5YSI662zZU7d9ESAm0FQ-17" vertex="1">
          <mxGeometry x="297" y="166" width="118" height="42" as="geometry" />
        </mxCell>
        <mxCell id="5YSI662zZU7d9ESAm0FQ-20" value="&lt;div&gt;Verify issuer&lt;/div&gt;&lt;div&gt;status&lt;/div&gt;" style="ellipse;whiteSpace=wrap;html=1;align=center;verticalAlign=top;fontFamily=Helvetica;fontSize=12;labelBackgroundColor=none;fillColor=#eeeeee;strokeColor=#36393d;snapToPoint=0;fixDash=0;enumerate=0;fontColor=#000000;" parent="5YSI662zZU7d9ESAm0FQ-17" vertex="1">
          <mxGeometry x="202" y="229" width="118" height="42" as="geometry" />
        </mxCell>
        <mxCell id="5YSI662zZU7d9ESAm0FQ-7" value="&lt;div&gt;&lt;span style=&quot;background-color: transparent;&quot;&gt;&lt;font style=&quot;&quot;&gt;Grant Role&lt;/font&gt;&lt;/span&gt;&lt;/div&gt;&lt;div&gt;&lt;span style=&quot;background-color: transparent;&quot;&gt;&lt;font style=&quot;&quot;&gt;to the issuer&lt;/font&gt;&lt;/span&gt;&lt;/div&gt;" style="ellipse;whiteSpace=wrap;html=1;align=center;verticalAlign=top;fontFamily=Helvetica;fontSize=12;labelBackgroundColor=none;fillColor=#eeeeee;strokeColor=#36393d;snapToPoint=0;fixDash=0;enumerate=0;fontColor=#000000;" parent="5YSI662zZU7d9ESAm0FQ-17" vertex="1">
          <mxGeometry x="42" y="43" width="118" height="42" as="geometry" />
        </mxCell>
        <mxCell id="5YSI662zZU7d9ESAm0FQ-9" value="&lt;div&gt;Update issuer&lt;/div&gt;&lt;div&gt;status&lt;/div&gt;" style="ellipse;whiteSpace=wrap;html=1;align=center;verticalAlign=top;fontFamily=Helvetica;fontSize=12;labelBackgroundColor=none;snapToPoint=0;fixDash=0;enumerate=0;fillColor=#eeeeee;strokeColor=#36393d;fontColor=#000000;" parent="5YSI662zZU7d9ESAm0FQ-17" vertex="1">
          <mxGeometry x="42" y="92" width="118" height="42" as="geometry" />
        </mxCell>
        <mxCell id="5_FEMPwi44hDqSTrpf5O-5" style="edgeStyle=orthogonalEdgeStyle;rounded=0;orthogonalLoop=1;jettySize=auto;html=1;entryX=0;entryY=0.5;entryDx=0;entryDy=0;strokeColor=#36393d;dashed=1;endArrow=block;endFill=0;snapToPoint=0;fixDash=0;enumerate=0;fillColor=#eeeeee;fontColor=#000000;" parent="5YSI662zZU7d9ESAm0FQ-17" source="5YSI662zZU7d9ESAm0FQ-10" target="5YSI662zZU7d9ESAm0FQ-20" edge="1">
          <mxGeometry relative="1" as="geometry" />
        </mxCell>
        <mxCell id="5_FEMPwi44hDqSTrpf5O-6" value="&amp;lt;&amp;lt;include&amp;gt;&amp;gt;" style="edgeLabel;align=center;verticalAlign=middle;resizable=0;points=[];strokeColor=#FFFFFF;fontColor=#FFFFFF;fillColor=#182E3E;snapToPoint=0;fixDash=0;enumerate=0;labelBackgroundColor=light-dark(#000000,#000000);html=1;labelBorderColor=none;textShadow=0;fontSize=7;" parent="5_FEMPwi44hDqSTrpf5O-5" vertex="1" connectable="0">
          <mxGeometry x="-0.133" relative="1" as="geometry">
            <mxPoint as="offset" />
          </mxGeometry>
        </mxCell>
        <mxCell id="5YSI662zZU7d9ESAm0FQ-10" value="&lt;div&gt;Issue&amp;nbsp;&lt;/div&gt;&lt;div&gt;certificate&lt;/div&gt;" style="ellipse;whiteSpace=wrap;html=1;align=center;verticalAlign=top;fontFamily=Helvetica;fontSize=12;labelBackgroundColor=none;fillColor=#eeeeee;strokeColor=#36393d;snapToPoint=0;fixDash=0;enumerate=0;fontColor=#000000;" parent="5YSI662zZU7d9ESAm0FQ-17" vertex="1">
          <mxGeometry x="42" y="166" width="118" height="42" as="geometry" />
        </mxCell>
        <mxCell id="5YSI662zZU7d9ESAm0FQ-11" value="&lt;div&gt;Get certificate&lt;/div&gt;&lt;div&gt;details&lt;/div&gt;" style="ellipse;whiteSpace=wrap;html=1;align=center;verticalAlign=top;fontFamily=Helvetica;fontSize=12;labelBackgroundColor=none;fillColor=#eeeeee;strokeColor=#36393d;snapToPoint=0;fixDash=0;enumerate=0;fontColor=#000000;" parent="5YSI662zZU7d9ESAm0FQ-17" vertex="1">
          <mxGeometry x="297" y="63" width="118" height="42" as="geometry" />
        </mxCell>
        <mxCell id="5_FEMPwi44hDqSTrpf5O-2" value="&lt;span&gt;Recipient&lt;/span&gt;" style="shape=umlActor;verticalLabelPosition=bottom;verticalAlign=top;html=1;outlineConnect=0;labelBackgroundColor=none;fillColor=#eeeeee;strokeColor=#36393d;snapToPoint=0;fixDash=0;enumerate=0;fontColor=#000000;" parent="1" vertex="1">
          <mxGeometry x="840" y="439" width="30" height="60" as="geometry" />
        </mxCell>
      </root>
    </mxGraphModel>
  </diagram>
</mxfile>
